<?xml version="1.0" encoding="UTF-8"?>
<!-- Generated by Pixelmator Pro Trial 3.6.14 -->
<svg width="222" height="346" viewBox="0 0 222 346" xmlns="http://www.w3.org/2000/svg">
    <path id="Path" fill="none" stroke="#000000" stroke-width="22" stroke-linecap="round" stroke-linejoin="bevel" d="M 21 179 L 21 179 L 21 59 M 66 29 L 66 29 L 66 179 M 111 179 L 111 179 L 111 14 M 156 29 L 156 29 L 156 179 M 201 179 L 201 179 L 201 119 M 201 179 C 201 209 171 224 111 224 C 102.715698 224 96 230.715729 96 239 C 96 247.284271 102.715698 254 111 254 M 111 194 C 86.147156 194 66 214.147186 66 239 C 66 263.852814 86.147156 284 111 284 L 111 284 C 127.568542 284 141 270.568542 141 254 C 141 237.431458 127.568542 224 111 224 M 21 179 L 21 179 L 21 284 M 201 179 L 201 179 L 201 284 M 111 194 C 141 194 156 189 156 179 M 21 284 C 21 308.852814 61.294373 329 111 329 C 160.705627 329 201 308.852814 201 284 M 21 179 C 31 189 46 189 66 179 C 76 189 91 189 111 179 C 121 189 136 189 156 179"/>
</svg>
