<svg xmlns="http://www.w3.org/2000/svg" width="222" height="346" viewBox="0 0 222 346"><path fill="none" stroke="#000" stroke-linecap="round" stroke-linejoin="bevel" stroke-width="22" d="M21 179h0V59m45-30h0v150m45 0h0V14m45 15h0v150m45 0h0v-60m0 60q0 45-90 45c-8.284 0-15 6.716-15 15s6.716 15 15 15m0-60c-24.853 0-45 20.147-45 45s20.147 45 45 45h0c16.569 0 30-13.431 30-30s-13.431-30-30-30m-90-45h0v105m180-105h0v105m-90-90q45 0 45-15M21 284c0 24.853 40.294 45 90 45s90-20.147 90-45M21 179q15 15 45 0 15 15 45 0 15 15 45 0"/></svg>